<svg xmlns="http://www.w3.org/2000/svg" aria-hidden="true" style="position:absolute;width:0;height:0;overflow:hidden">
  <defs>
    <symbol id="icon-map" viewBox="0 0 32 32">
      <path d="M31.634.226A.991.991 0 0 1 32 1v28a.999.999 0 0 1-.804.98l-10 2a.995.995 0 0 1-.392 0L11 30.02l-9.804 1.96a.995.995 0 0 1-1.1-.552A1.003 1.003 0 0 1 0 31V3a.999.999 0 0 1 .804-.98l10-2a.995.995 0 0 1 .392 0L21 1.98 30.804.02a.996.996 0 0 1 .83.206zM20 3.82l-8-1.6v25.96l8 1.6V3.82zm2 25.96 8-1.6V2.22l-8 1.6v25.96zm-12-1.6V2.22l-8 1.6v25.96l8-1.6z"/>
    </symbol>
    <symbol id="icon-tv" viewBox="0 0 32 32">
      <path d="M0 8s0-4 4-4h24s4 0 4 4v12s0 4-4 4h-8c0 1.333.167 2.333.5 3H22a.997.997 0 0 1 1 1 .997.997 0 0 1-1 1H10a.997.997 0 0 1-1-1 .997.997 0 0 1 1-1h1.5c.333-.667.5-1.667.5-3H4s-4 0-4-4V8zm2.796-1.71c-.22.153-.395.361-.508.604A3.013 3.013 0 0 0 2 8.02V20c0 .65.156 1.004.29 1.204.14.208.341.377.604.508.338.162.703.259 1.076.286l.05.002H28c.65 0 1.004-.156 1.204-.29.22-.153.395-.361.508-.604.162-.338.259-.703.286-1.076l.002-.05V8c0-.65-.156-1.004-.29-1.204a1.511 1.511 0 0 0-.604-.508A3.018 3.018 0 0 0 27.98 6H4c-.65 0-1.004.156-1.204.29z"/>
    </symbol>
    <symbol id="icon-van" viewBox="0 0 32 32">
      <path d="M12 2H2v28h10V2zm18 0H20v10h10V2zm0 18v10H20V20h10zM0 2a2 2 0 0 1 2-2h10a2 2 0 0 1 2 2v28a2 2 0 0 1-2 2H2a2 2 0 0 1-2-2V2zm18 0a2 2 0 0 1 2-2h10a2 2 0 0 1 2 2v10a2 2 0 0 1-2 2H20a2 2 0 0 1-2-2V2zm2 16a2 2 0 0 0-2 2v10a2 2 0 0 0 2 2h10a2 2 0 0 0 2-2V20a2 2 0 0 0-2-2H20z"/>
    </symbol>
    <symbol id="icon-wind" viewBox="0 0 32 32">
      <path d="M25 4a5 5 0 0 0-5 5 .997.997 0 0 1-1 1 .997.997 0 0 1-1-1 6.994 6.994 0 0 1 4.322-6.467 6.998 6.998 0 0 1 9.544 5.102 7.006 7.006 0 0 1-2.976 7.186 6.994 6.994 0 0 1-3.889 1.18h-24a.997.997 0 0 1-1-1 .997.997 0 0 1 1-1h24a5 5 0 0 0 0-10zM11 6a2 2 0 0 0-2 2 .997.997 0 0 1-1 1 .997.997 0 0 1-1-1 4.004 4.004 0 0 1 2.469-3.695A4 4 0 1 1 11 12H1a.997.997 0 0 1-1-1 .997.997 0 0 1 1-1h10a2 2 0 0 0 0-4zM0 19a.997.997 0 0 1 1-1h20.084a5.998 5.998 0 0 1 4.242 10.243 5.996 5.996 0 0 1-6.539 1.301 5.999 5.999 0 0 1-3.704-5.543.997.997 0 0 1 1-1 .997.997 0 0 1 1 1 4.004 4.004 0 0 0 2.469 3.695 4 4 0 1 0 1.531-7.695H.999a.997.997 0 0 1-1-1z"/>
    </symbol>
    <symbol id="icon-alcove" viewBox="0 0 32 32">
      <path d="M6.857 2.286v4.571H2.286V2.286h4.571zm2.286 27.428v-4.571a2.287 2.287 0 0 0-2.285-2.285H2.287a2.287 2.287 0 0 0-2.285 2.285v4.571a2.287 2.287 0 0 0 2.285 2.285h4.571a2.287 2.287 0 0 0 2.285-2.285zm0-11.428v-4.571a2.287 2.287 0 0 0-2.285-2.285H2.287a2.287 2.287 0 0 0-2.285 2.285v4.571a2.287 2.287 0 0 0 2.285 2.285h4.571a2.287 2.287 0 0 0 2.285-2.285zm0-11.429V2.286A2.287 2.287 0 0 0 6.858.001H2.287A2.287 2.287 0 0 0 .002 2.286v4.571a2.287 2.287 0 0 0 2.285 2.285h4.571a2.287 2.287 0 0 0 2.285-2.285zm11.428 22.857v-4.571a2.287 2.287 0 0 0-2.285-2.285h-4.571a2.287 2.287 0 0 0-2.285 2.285v4.571a2.287 2.287 0 0 0 2.285 2.285h4.571a2.287 2.287 0 0 0 2.285-2.285zm0-11.428v-4.571a2.287 2.287 0 0 0-2.285-2.285h-4.571a2.287 2.287 0 0 0-2.285 2.285v4.571a2.287 2.287 0 0 0 2.285 2.285h4.571a2.287 2.287 0 0 0 2.285-2.285zm0-11.429V2.286A2.287 2.287 0 0 0 18.286.001h-4.571a2.287 2.287 0 0 0-2.285 2.285v4.571a2.287 2.287 0 0 0 2.285 2.285h4.571a2.287 2.287 0 0 0 2.285-2.285zm-2.285-4.571v4.571h-4.571V2.286h4.571zm11.428 0v4.571h-4.571V2.286h4.571zM6.857 13.714v4.571H2.286v-4.571h4.571zm11.429 0v4.571h-4.571v-4.571h4.571zm11.428 0h-4.571v4.571h4.571v-4.571zM6.857 25.143v4.571H2.286v-4.571h4.571zm11.429 0v4.571h-4.571v-4.571h4.571zm11.428 0v4.571h-4.571v-4.571h4.571zM25.143 0a2.287 2.287 0 0 0-2.285 2.285v4.571a2.287 2.287 0 0 0 2.285 2.285h4.571a2.287 2.287 0 0 0 2.285-2.285V2.285A2.287 2.287 0 0 0 29.714 0h-4.571zm-2.286 13.714a2.287 2.287 0 0 1 2.285-2.285h4.571a2.287 2.287 0 0 1 2.285 2.285v4.571a2.287 2.287 0 0 1-2.285 2.285h-4.571a2.287 2.287 0 0 1-2.285-2.285v-4.571zm2.286 9.143a2.287 2.287 0 0 0-2.285 2.285v4.571a2.287 2.287 0 0 0 2.285 2.285h4.571a2.287 2.287 0 0 0 2.285-2.285v-4.571a2.287 2.287 0 0 0-2.285-2.285h-4.571z"/>
    </symbol>
    <symbol id="icon-droplet" viewBox="0 0 32 32">
      <path d="M14.42 1.6C15.38.59 16 0 16 0c.219.725.466 1.417.742 2.076 1.624 3.892 4.146 6.7 6.394 9.2C25.756 14.192 28 16.69 28 20a12.003 12.003 0 0 1-12 12A11.998 11.998 0 0 1 4 20c0-6.664 7.16-14.966 10.42-18.4zm.826 2.042a62.033 62.033 0 0 0-3.658 4.338c-1.452 1.9-2.872 4.016-3.92 6.14C6.608 16.266 6 18.276 6 20a10.001 10.001 0 0 0 20 0c0-2.402-1.592-4.314-4.362-7.4l-.06-.064C19.5 10.22 17 7.442 15.246 3.642z"/>
      <path d="M9.106 15.552c1.64-3.282 3.434-5.506 4.186-6.26l1.416 1.416c-.58.58-2.256 2.622-3.814 5.74l-1.788-.896z"/>
    </symbol>
    <symbol id="icon-cupHot" viewBox="0 0 33 32">
      <path d="M1.5 12a1.007 1.007 0 0 0-.779.374.997.997 0 0 0-.197.842l3.304 14.868A4.998 4.998 0 0 0 8.708 32h11.584a4.996 4.996 0 0 0 4.88-3.916l.262-1.18a6 6 0 0 0 2.601-11.708l.442-1.98A1.003 1.003 0 0 0 27.501 12h-26zm25 13a4.05 4.05 0 0 1-.632-.05l1.734-7.796A4.002 4.002 0 0 1 26.5 25zM5.78 27.65 2.746 14h23.508L23.22 27.65c-.148.666-.519 1.262-1.051 1.69s-1.194.66-1.877.66H8.708a2.998 2.998 0 0 1-2.928-2.35zM9.3 1.6l-.006.008-.028.038c-.146.2-.282.407-.408.62a4.003 4.003 0 0 0-.282.534c-.052.12-.068.184-.074.206v.008c.023.177.085.346.182.496.15.266.356.544.616.89l.02.024c.236.316.52.694.74 1.086.224.4.44.91.44 1.49 0 .376-.13.736-.238.988a6.142 6.142 0 0 1-.404.776 10.2 10.2 0 0 1-.506.764l-.036.05-.01.016-.004.004a1.004 1.004 0 0 1-1.4.202A1 1 0 0 1 7.7 8.4l.006-.008.028-.038c.146-.2.282-.407.408-.62.107-.171.202-.349.282-.534.052-.12.068-.184.074-.206a1.199 1.199 0 0 0-.18-.504A8.024 8.024 0 0 0 7.7 5.6l-.02-.024c-.27-.345-.517-.708-.74-1.086A3.066 3.066 0 0 1 6.5 3c0-.376.13-.736.238-.988.118-.276.268-.548.404-.776.159-.261.328-.516.506-.764l.05-.07A1.004 1.004 0 0 1 9.098.2 1.004 1.004 0 0 1 9.3 1.6zm6 0-.006.008-.028.038c-.146.2-.282.407-.408.62a4.003 4.003 0 0 0-.282.534c-.052.12-.068.184-.074.206v.008c.023.177.085.346.182.496.15.266.356.544.616.89l.02.024c.236.316.52.694.74 1.086.224.4.44.91.44 1.49 0 .376-.13.736-.238.988a6.142 6.142 0 0 1-.404.776 10.2 10.2 0 0 1-.506.764l-.036.05-.01.016-.004.004a1.004 1.004 0 0 1-1.4.202 1 1 0 0 1-.202-1.4l.006-.008.028-.038c.146-.2.282-.407.408-.62.107-.171.202-.349.282-.534.052-.12.068-.184.074-.206a1.199 1.199 0 0 0-.18-.504 8.024 8.024 0 0 0-.618-.89l-.02-.024c-.27-.345-.517-.708-.74-1.086A3.066 3.066 0 0 1 12.5 3c0-.376.13-.736.238-.988.118-.276.268-.548.404-.776.159-.261.328-.516.506-.764l.05-.07a1.004 1.004 0 0 1 1.4-.202 1 1 0 0 1 .202 1.4zm6 0-.006.008-.028.038c-.145.2-.282.407-.408.62a4.003 4.003 0 0 0-.282.534c-.052.12-.068.184-.074.206v.008c.023.177.085.346.182.496.15.266.356.544.616.89l.02.024c.236.316.52.694.74 1.086.224.4.44.91.44 1.49 0 .376-.13.736-.238.988a6.142 6.142 0 0 1-.404.776 9.875 9.875 0 0 1-.504.764l-.038.05-.01.016-.004.004a1.004 1.004 0 0 1-1.4.202 1 1 0 0 1-.202-1.4l.006-.008.028-.038c.145-.2.282-.407.408-.62.107-.171.202-.349.282-.534.052-.12.068-.184.074-.206a1.199 1.199 0 0 0-.18-.504 8.024 8.024 0 0 0-.618-.89l-.02-.024c-.27-.345-.517-.708-.74-1.086A3.066 3.066 0 0 1 18.5 3c0-.376.13-.736.238-.988.118-.276.268-.548.404-.776.159-.261.328-.516.506-.764l.05-.07a1.004 1.004 0 0 1 1.4-.202 1 1 0 0 1 .202 1.4z"/>
    </symbol>
    <symbol id="icon-diagram" viewBox="0 0 32 32">
      <path d="M12 7a3.004 3.004 0 0 1 3-3h2a3.004 3.004 0 0 1 3 3v2a3.004 3.004 0 0 1-3 3v2h11a.997.997 0 0 1 1 1v2a.997.997 0 0 1-1 1 .997.997 0 0 1-1-1v-1H17v1a.997.997 0 0 1-1 1 .997.997 0 0 1-1-1v-1H5v1a.997.997 0 0 1-1 1 .997.997 0 0 1-1-1v-2a.997.997 0 0 1 1-1h11v-2a3.004 3.004 0 0 1-3-3V7zm5 3a.997.997 0 0 0 1-1V7a.997.997 0 0 0-1-1h-2a.997.997 0 0 0-1 1v2a.997.997 0 0 0 1 1h2zM0 23a3.004 3.004 0 0 1 3-3h2a3.004 3.004 0 0 1 3 3v2a3.004 3.004 0 0 1-3 3H3a3.004 3.004 0 0 1-3-3v-2zm3-1a.997.997 0 0 0-1 1v2a.997.997 0 0 0 1 1h2a.997.997 0 0 0 1-1v-2a.997.997 0 0 0-1-1H3zm9 1a3.004 3.004 0 0 1 3-3h2a3.004 3.004 0 0 1 3 3v2a3.004 3.004 0 0 1-3 3h-2a3.004 3.004 0 0 1-3-3v-2zm3-1a.997.997 0 0 0-1 1v2a.997.997 0 0 0 1 1h2a.997.997 0 0 0 1-1v-2a.997.997 0 0 0-1-1h-2zm9 1a3.004 3.004 0 0 1 3-3h2a3.004 3.004 0 0 1 3 3v2a3.004 3.004 0 0 1-3 3h-2a3.004 3.004 0 0 1-3-3v-2zm3-1a.997.997 0 0 0-1 1v2a.997.997 0 0 0 1 1h2a.997.997 0 0 0 1-1v-2a.997.997 0 0 0-1-1h-2z"/>
    </symbol>
    <symbol id="icon-fully" viewBox="0 0 32 32">
      <path d="M0 3.429A3.428 3.428 0 0 1 3.428.001h6.857a3.428 3.428 0 0 1 3.428 3.428v6.857a3.428 3.428 0 0 1-3.428 3.428H3.428A3.428 3.428 0 0 1 0 10.286V3.429zm3.429-1.143a1.14 1.14 0 0 0-1.143 1.143v6.857a1.14 1.14 0 0 0 1.143 1.143h6.857a1.14 1.14 0 0 0 1.143-1.143V3.429a1.14 1.14 0 0 0-1.143-1.143H3.429zm14.857 1.143A3.428 3.428 0 0 1 21.714.001h6.857a3.428 3.428 0 0 1 3.428 3.428v6.857a3.428 3.428 0 0 1-3.428 3.428h-6.857a3.428 3.428 0 0 1-3.428-3.428V3.429zm3.428-1.143a1.14 1.14 0 0 0-1.143 1.143v6.857a1.14 1.14 0 0 0 1.143 1.143h6.857a1.14 1.14 0 0 0 1.143-1.143V3.429a1.14 1.14 0 0 0-1.143-1.143h-6.857zM0 21.714a3.428 3.428 0 0 1 3.428-3.428h6.857a3.428 3.428 0 0 1 3.428 3.428v6.857a3.428 3.428 0 0 1-3.428 3.428H3.428A3.428 3.428 0 0 1 0 28.571v-6.857zm3.429-1.143a1.14 1.14 0 0 0-1.143 1.143v6.857a1.14 1.14 0 0 0 1.143 1.143h6.857a1.14 1.14 0 0 0 1.143-1.143v-6.857a1.14 1.14 0 0 0-1.143-1.143H3.429zm14.857 1.143a3.428 3.428 0 0 1 3.428-3.428h6.857a3.428 3.428 0 0 1 3.428 3.428v6.857a3.428 3.428 0 0 1-3.428 3.428h-6.857a3.428 3.428 0 0 1-3.428-3.428v-6.857zm3.428-1.143a1.14 1.14 0 0 0-1.143 1.143v6.857a1.14 1.14 0 0 0 1.143 1.143h6.857a1.14 1.14 0 0 0 1.143-1.143v-6.857a1.14 1.14 0 0 0-1.143-1.143h-6.857z"/>
    </symbol>
    <symbol id="icon-radio" viewBox="0 0 19 18" > 
      <path d="M8.75 2.125C8.75 1.95924 8.81585 1.80027 8.93306 1.68306C9.05027 1.56585 9.20924 1.5 9.375 1.5H18.125C18.2908 1.5 18.4497 1.56585 18.5669 1.68306C18.6842 1.80027 18.75 1.95924 18.75 2.125V3.375C18.75 3.54076 18.6842 3.69973 18.5669 3.81694C18.4497 3.93415 18.2908 4 18.125 4H9.375C9.20924 4 9.05027 3.93415 8.93306 3.81694C8.81585 3.69973 8.75 3.54076 8.75 3.375V2.125ZM5.58794e-08 14C5.58794e-08 13.0054 0.395088 12.0516 1.09835 11.3483C1.80161 10.6451 2.75544 10.25 3.75 10.25C4.74456 10.25 5.69839 10.6451 6.40165 11.3483C7.10491 12.0516 7.5 13.0054 7.5 14C7.5 14.9946 7.10491 15.9484 6.40165 16.6517C5.69839 17.3549 4.74456 17.75 3.75 17.75C2.75544 17.75 1.80161 17.3549 1.09835 16.6517C0.395088 15.9484 5.58794e-08 14.9946 5.58794e-08 14ZM8.75 12.125C8.75 11.9592 8.81585 11.8003 8.93306 11.6831C9.05027 11.5658 9.20924 11.5 9.375 11.5H18.125C18.2908 11.5 18.4497 11.5658 18.5669 11.6831C18.6842 11.8003 18.75 11.9592 18.75 12.125V13.375C18.75 13.5408 18.6842 13.6997 18.5669 13.8169C18.4497 13.9342 18.2908 14 18.125 14H9.375C9.20924 14 9.05027 13.9342 8.93306 13.8169C8.81585 13.6997 8.75 13.5408 8.75 13.375V12.125ZM8.75 5.875C8.75 5.70924 8.81585 5.55027 8.93306 5.43306C9.05027 5.31585 9.20924 5.25 9.375 5.25H15.625C15.7908 5.25 15.9497 5.31585 16.0669 5.43306C16.1842 5.55027 16.25 5.70924 16.25 5.875C16.25 6.04076 16.1842 6.19973 16.0669 6.31694C15.9497 6.43415 15.7908 6.5 15.625 6.5H9.375C9.20924 6.5 9.05027 6.43415 8.93306 6.31694C8.81585 6.19973 8.75 6.04076 8.75 5.875ZM8.75 15.875C8.75 15.7092 8.81585 15.5503 8.93306 15.4331C9.05027 15.3158 9.20924 15.25 9.375 15.25H15.625C15.7908 15.25 15.9497 15.3158 16.0669 15.4331C16.1842 15.5503 16.25 15.7092 16.25 15.875C16.25 16.0408 16.1842 16.1997 16.0669 16.3169C15.9497 16.4342 15.7908 16.5 15.625 16.5H9.375C9.20924 16.5 9.05027 16.4342 8.93306 16.3169C8.81585 16.1997 8.75 16.0408 8.75 15.875ZM3.75 0.25C3.25754 0.25 2.76991 0.346997 2.31494 0.535452C1.85997 0.723907 1.44657 1.00013 1.09835 1.34835C0.75013 1.69657 0.473907 2.10997 0.285452 2.56494C0.0969966 3.01991 0 3.50754 0 4C0 4.49246 0.0969966 4.98009 0.285452 5.43506C0.473907 5.89003 0.75013 6.30343 1.09835 6.65165C1.44657 6.99987 1.85997 7.27609 2.31494 7.46455C2.76991 7.653 3.25754 7.75 3.75 7.75C4.74456 7.75 5.69839 7.35491 6.40165 6.65165C7.10491 5.94839 7.5 4.99456 7.5 4C7.5 3.00544 7.10491 2.05161 6.40165 1.34835C5.69839 0.645088 4.74456 0.25 3.75 0.25ZM3.75 5.875C3.25272 5.875 2.77581 5.67746 2.42417 5.32583C2.07254 4.97419 1.875 4.49728 1.875 4C1.875 3.50272 2.07254 3.02581 2.42417 2.67417C2.77581 2.32254 3.25272 2.125 3.75 2.125C4.24728 2.125 4.72419 2.32254 5.07583 2.67417C5.42746 3.02581 5.625 3.50272 5.625 4C5.625 4.49728 5.42746 4.97419 5.07583 5.32583C4.72419 5.67746 4.24728 5.875 3.75 5.875Z" />
    </symbol>
    <symbol id="icon-petrol" viewBox="0 0 20 20">
      <path d="M3.75 3.125C3.75 2.95924 3.81585 2.80027 3.93306 2.68306C4.05027 2.56585 4.20924 2.5 4.375 2.5H10.625C10.7908 2.5 10.9497 2.56585 11.0669 2.68306C11.1842 2.80027 11.25 2.95924 11.25 3.125V9.375C11.25 9.54076 11.1842 9.69973 11.0669 9.81694C10.9497 9.93415 10.7908 10 10.625 10H4.375C4.20924 10 4.05027 9.93415 3.93306 9.81694C3.81585 9.69973 3.75 9.54076 3.75 9.375V3.125Z" />
      <path d="M1.25 2.5C1.25 1.83696 1.51339 1.20107 1.98223 0.732233C2.45107 0.263392 3.08696 0 3.75 0L11.25 0C11.913 0 12.5489 0.263392 13.0178 0.732233C13.4866 1.20107 13.75 1.83696 13.75 2.5V12.5C14.413 12.5 15.0489 12.7634 15.5178 13.2322C15.9866 13.7011 16.25 14.337 16.25 15V15.625C16.25 15.7908 16.3158 15.9497 16.4331 16.0669C16.5503 16.1842 16.7092 16.25 16.875 16.25C17.0408 16.25 17.1997 16.1842 17.3169 16.0669C17.4342 15.9497 17.5 15.7908 17.5 15.625V10H16.875C16.7092 10 16.5503 9.93415 16.4331 9.81694C16.3158 9.69973 16.25 9.54076 16.25 9.375V5.46875C16.25 5.30299 16.3158 5.14402 16.4331 5.02681C16.5503 4.9096 16.7092 4.84375 16.875 4.84375H18.7437C18.73 4.24875 18.6775 3.72625 18.4925 3.31625C18.3935 3.07785 18.2209 2.87729 18 2.74375C17.77 2.60625 17.42 2.5 16.875 2.5C16.7092 2.5 16.5503 2.43415 16.4331 2.31694C16.3158 2.19973 16.25 2.04076 16.25 1.875C16.25 1.70924 16.3158 1.55027 16.4331 1.43306C16.5503 1.31585 16.7092 1.25 16.875 1.25C17.58 1.24833 18.1683 1.38833 18.64 1.67C19.1187 1.955 19.4325 2.35875 19.6325 2.80375C20.0013 3.6225 20 4.635 20 5.405V9.37375C20.0002 9.45593 19.9841 9.53734 19.9528 9.61331C19.9214 9.68928 19.8754 9.75833 19.8174 9.8165C19.7593 9.87467 19.6904 9.92082 19.6145 9.95231C19.5386 9.98379 19.4572 10 19.375 10H18.75V15.625C18.75 16.1223 18.5525 16.5992 18.2008 16.9508C17.8492 17.3025 17.3723 17.5 16.875 17.5C16.3777 17.5 15.9008 17.3025 15.5492 16.9508C15.1975 16.5992 15 16.1223 15 15.625V15C15 14.6685 14.8683 14.3505 14.6339 14.1161C14.3995 13.8817 14.0815 13.75 13.75 13.75V18.75H14.375C14.5408 18.75 14.6997 18.8158 14.8169 18.9331C14.9342 19.0503 15 19.2092 15 19.375C15 19.5408 14.9342 19.6997 14.8169 19.8169C14.6997 19.9342 14.5408 20 14.375 20H0.625C0.45924 20 0.300269 19.9342 0.183058 19.8169C0.065848 19.6997 0 19.5408 0 19.375C0 19.2092 0.065848 19.0503 0.183058 18.9331C0.300269 18.8158 0.45924 18.75 0.625 18.75H1.25V2.5ZM12.5 2.5C12.5 2.16848 12.3683 1.85054 12.1339 1.61612C11.8995 1.3817 11.5815 1.25 11.25 1.25H3.75C3.41848 1.25 3.10054 1.3817 2.86612 1.61612C2.6317 1.85054 2.5 2.16848 2.5 2.5V18.75H12.5V2.5Z" />
    </symbol>
    <symbol id="icon-twoPerson" viewBox="0 0 20 16">
      <path d="M18.75 15.5C18.75 15.5 20 15.5 20 14.25C20 13 18.75 9.25 13.75 9.25C8.75 9.25 7.5 13 7.5 14.25C7.5 15.5 8.75 15.5 8.75 15.5H18.75ZM8.7775 14.25L8.75 14.245C8.75125 13.915 8.95875 12.9575 9.7 12.095C10.39 11.2863 11.6025 10.5 13.75 10.5C15.8962 10.5 17.1087 11.2875 17.8 12.095C18.5413 12.9575 18.7475 13.9163 18.75 14.245L18.74 14.2475L18.7225 14.25H8.7775ZM13.75 6.75C14.413 6.75 15.0489 6.48661 15.5178 6.01777C15.9866 5.54893 16.25 4.91304 16.25 4.25C16.25 3.58696 15.9866 2.95107 15.5178 2.48223C15.0489 2.01339 14.413 1.75 13.75 1.75C13.087 1.75 12.4511 2.01339 11.9822 2.48223C11.5134 2.95107 11.25 3.58696 11.25 4.25C11.25 4.91304 11.5134 5.54893 11.9822 6.01777C12.4511 6.48661 13.087 6.75 13.75 6.75ZM17.5 4.25C17.5 4.74246 17.403 5.23009 17.2145 5.68506C17.0261 6.14003 16.7499 6.55343 16.4017 6.90165C16.0534 7.24987 15.64 7.52609 15.1851 7.71455C14.7301 7.903 14.2425 8 13.75 8C13.2575 8 12.7699 7.903 12.3149 7.71455C11.86 7.52609 11.4466 7.24987 11.0983 6.90165C10.7501 6.55343 10.4739 6.14003 10.2855 5.68506C10.097 5.23009 10 4.74246 10 4.25C10 3.25544 10.3951 2.30161 11.0983 1.59835C11.8016 0.895088 12.7554 0.5 13.75 0.5C14.7446 0.5 15.6984 0.895088 16.4017 1.59835C17.1049 2.30161 17.5 3.25544 17.5 4.25ZM8.67 9.6C8.1697 9.44364 7.65438 9.34016 7.1325 9.29125C6.83922 9.26265 6.54467 9.24888 6.25 9.25C1.25 9.25 0 13 0 14.25C0 15.0833 0.416667 15.5 1.25 15.5H6.52C6.33478 15.1097 6.24237 14.6819 6.25 14.25C6.25 12.9875 6.72125 11.6975 7.6125 10.62C7.91625 10.2525 8.27 9.90875 8.67 9.6ZM6.15 10.5C5.41066 11.6118 5.01106 12.9148 5 14.25H1.25C1.25 13.925 1.455 12.9625 2.2 12.095C2.88125 11.3 4.065 10.525 6.15 10.5013V10.5ZM1.875 4.875C1.875 3.88044 2.27009 2.92661 2.97335 2.22335C3.67661 1.52009 4.63044 1.125 5.625 1.125C6.61956 1.125 7.57339 1.52009 8.27665 2.22335C8.97991 2.92661 9.375 3.88044 9.375 4.875C9.375 5.86956 8.97991 6.82339 8.27665 7.52665C7.57339 8.22991 6.61956 8.625 5.625 8.625C4.63044 8.625 3.67661 8.22991 2.97335 7.52665C2.27009 6.82339 1.875 5.86956 1.875 4.875ZM5.625 2.375C4.96196 2.375 4.32607 2.63839 3.85723 3.10723C3.38839 3.57607 3.125 4.21196 3.125 4.875C3.125 5.53804 3.38839 6.17393 3.85723 6.64277C4.32607 7.11161 4.96196 7.375 5.625 7.375C6.28804 7.375 6.92393 7.11161 7.39277 6.64277C7.86161 6.17393 8.125 5.53804 8.125 4.875C8.125 4.21196 7.86161 3.57607 7.39277 3.10723C6.92393 2.63839 6.28804 2.375 5.625 2.375Z" />
    </symbol>
    <symbol id="icon-heart" viewBox="0 0 24 21">
      <path d="M12 7.854L10.659 5.1705C10.326 4.506 9.7485 3.5505 8.931 2.778C8.127 2.0175 7.164 1.5 6 1.5C3.486 1.5 1.5 3.489 1.5 5.88C1.5 7.6965 2.331 8.979 4.302 10.935C4.8075 11.436 5.3835 11.9775 6.021 12.5745C7.683 14.1345 9.75 16.0755 12 18.6705C14.25 16.0755 16.317 14.1345 17.979 12.5745C18.6165 11.9775 19.194 11.4345 19.698 10.935C21.669 8.979 22.5 7.6965 22.5 5.88C22.5 3.489 20.514 1.5 18 1.5C16.8345 1.5 15.873 2.0175 15.069 2.778C14.2515 3.5505 13.674 4.506 13.341 5.1705L12 7.854ZM12.588 20.292C12.5158 20.3776 12.4257 20.4463 12.3242 20.4935C12.2226 20.5407 12.112 20.5651 12 20.5651C11.888 20.5651 11.7774 20.5407 11.6758 20.4935C11.5743 20.4463 11.4842 20.3776 11.412 20.292C9.0105 17.439 6.837 15.399 5.0475 13.7205C1.95 10.812 0 8.9835 0 5.88C0 2.6325 2.685 0 6 0C8.4 0 10.0785 1.575 11.106 3.012C11.496 3.5595 11.793 4.086 12 4.5C12.2597 3.982 12.5586 3.48456 12.894 3.012C13.9215 1.5735 15.6 0 18 0C21.315 0 24 2.6325 24 5.88C24 8.9835 22.05 10.812 18.9525 13.7205C17.163 15.4005 14.9895 17.442 12.588 20.292Z" />
    </symbol>
  </defs>
</svg>
